<svg width="160" height="48" viewBox="0 0 160 48" fill="none" xmlns="http://www.w3.org/2000/svg">
<rect width="160" height="48" rx="4" fill="#FF424D"/>
<path d="M26.82 14.41C30.78 14.41 34 17.65 34 21.62C34 25.58 30.78 28.8 26.82 28.8C22.85 28.8 19.61 25.58 19.61 21.62C19.61 17.65 22.85 14.41 26.82 14.41M14 33.6H17.5V14.41H14V33.6Z" fill="white"/>
<path d="M53.1 16.0695C52.6133 16.0695 52.1733 15.9862 51.78 15.8195C51.3933 15.6528 51.0867 15.4128 50.86 15.0995C50.6333 14.7862 50.5167 14.4162 50.51 13.9895H52.01C52.03 14.2762 52.13 14.5028 52.31 14.6695C52.4967 14.8362 52.75 14.9195 53.07 14.9195C53.3967 14.9195 53.6533 14.8428 53.84 14.6895C54.0267 14.5295 54.12 14.3228 54.12 14.0695C54.12 13.8628 54.0567 13.6928 53.93 13.5595C53.8033 13.4262 53.6433 13.3228 53.45 13.2495C53.2633 13.1695 53.0033 13.0828 52.67 12.9895C52.2167 12.8562 51.8467 12.7262 51.56 12.5995C51.28 12.4662 51.0367 12.2695 50.83 12.0095C50.63 11.7428 50.53 11.3895 50.53 10.9495C50.53 10.5362 50.6333 10.1762 50.84 9.86951C51.0467 9.56284 51.3367 9.32951 51.71 9.16951C52.0833 9.00284 52.51 8.91951 52.99 8.91951C53.71 8.91951 54.2933 9.09618 54.74 9.44951C55.1933 9.79618 55.4433 10.2828 55.49 10.9095H53.95C53.9367 10.6695 53.8333 10.4728 53.64 10.3195C53.4533 10.1595 53.2033 10.0795 52.89 10.0795C52.6167 10.0795 52.3967 10.1495 52.23 10.2895C52.07 10.4295 51.99 10.6328 51.99 10.8995C51.99 11.0862 52.05 11.2428 52.17 11.3695C52.2967 11.4895 52.45 11.5895 52.63 11.6695C52.8167 11.7428 53.0767 11.8295 53.41 11.9295C53.8633 12.0628 54.2333 12.1962 54.52 12.3295C54.8067 12.4628 55.0533 12.6628 55.26 12.9295C55.4667 13.1962 55.57 13.5462 55.57 13.9795C55.57 14.3528 55.4733 14.6995 55.28 15.0195C55.0867 15.3395 54.8033 15.5962 54.43 15.7895C54.0567 15.9762 53.6133 16.0695 53.1 16.0695ZM58.1638 9.01951V13.3395C58.1638 13.8128 58.2871 14.1762 58.5338 14.4295C58.7804 14.6762 59.1271 14.7995 59.5738 14.7995C60.0271 14.7995 60.3771 14.6762 60.6238 14.4295C60.8704 14.1762 60.9938 13.8128 60.9938 13.3395V9.01951H62.4038V13.3295C62.4038 13.9228 62.2738 14.4262 62.0138 14.8395C61.7604 15.2462 61.4171 15.5528 60.9838 15.7595C60.5571 15.9662 60.0804 16.0695 59.5538 16.0695C59.0338 16.0695 58.5604 15.9662 58.1338 15.7595C57.7138 15.5528 57.3804 15.2462 57.1338 14.8395C56.8871 14.4262 56.7638 13.9228 56.7638 13.3295V9.01951H58.1638ZM68.8464 11.1795C68.8464 11.5528 68.7564 11.9028 68.5764 12.2295C68.4031 12.5562 68.1264 12.8195 67.7464 13.0195C67.3731 13.2195 66.8997 13.3195 66.3264 13.3195H65.1564V15.9995H63.7564V9.01951H66.3264C66.8664 9.01951 67.3264 9.11284 67.7064 9.29951C68.0864 9.48618 68.3697 9.74284 68.5564 10.0695C68.7497 10.3962 68.8464 10.7662 68.8464 11.1795ZM66.2664 12.1895C66.6531 12.1895 66.9397 12.1028 67.1264 11.9295C67.3131 11.7495 67.4064 11.4995 67.4064 11.1795C67.4064 10.4995 67.0264 10.1595 66.2664 10.1595H65.1564V12.1895H66.2664ZM74.9304 11.1795C74.9304 11.5528 74.8404 11.9028 74.6604 12.2295C74.4871 12.5562 74.2104 12.8195 73.8304 13.0195C73.4571 13.2195 72.9837 13.3195 72.4104 13.3195H71.2404V15.9995H69.8404V9.01951H72.4104C72.9504 9.01951 73.4104 9.11284 73.7904 9.29951C74.1704 9.48618 74.4537 9.74284 74.6404 10.0695C74.8337 10.3962 74.9304 10.7662 74.9304 11.1795ZM72.3504 12.1895C72.7371 12.1895 73.0237 12.1028 73.2104 11.9295C73.3971 11.7495 73.4904 11.4995 73.4904 11.1795C73.4904 10.4995 73.1104 10.1595 72.3504 10.1595H71.2404V12.1895H72.3504ZM79.1644 16.0695C78.511 16.0695 77.911 15.9162 77.3644 15.6095C76.8177 15.3028 76.3844 14.8795 76.0644 14.3395C75.7444 13.7928 75.5844 13.1762 75.5844 12.4895C75.5844 11.8095 75.7444 11.1995 76.0644 10.6595C76.3844 10.1128 76.8177 9.68618 77.3644 9.37951C77.911 9.07284 78.511 8.91951 79.1644 8.91951C79.8244 8.91951 80.4244 9.07284 80.9644 9.37951C81.511 9.68618 81.941 10.1128 82.2544 10.6595C82.5744 11.1995 82.7344 11.8095 82.7344 12.4895C82.7344 13.1762 82.5744 13.7928 82.2544 14.3395C81.941 14.8795 81.511 15.3028 80.9644 15.6095C80.4177 15.9162 79.8177 16.0695 79.1644 16.0695ZM79.1644 14.8195C79.5844 14.8195 79.9544 14.7262 80.2744 14.5395C80.5944 14.3462 80.8444 14.0728 81.0244 13.7195C81.2044 13.3662 81.2944 12.9562 81.2944 12.4895C81.2944 12.0228 81.2044 11.6162 81.0244 11.2695C80.8444 10.9162 80.5944 10.6462 80.2744 10.4595C79.9544 10.2728 79.5844 10.1795 79.1644 10.1795C78.7444 10.1795 78.371 10.2728 78.0444 10.4595C77.7244 10.6462 77.4744 10.9162 77.2944 11.2695C77.1144 11.6162 77.0244 12.0228 77.0244 12.4895C77.0244 12.9562 77.1144 13.3662 77.2944 13.7195C77.4744 14.0728 77.7244 14.3462 78.0444 14.5395C78.371 14.7262 78.7444 14.8195 79.1644 14.8195ZM87.3759 15.9995L85.8359 13.2795H85.1759V15.9995H83.7759V9.01951H86.3959C86.9359 9.01951 87.3959 9.11618 87.7759 9.30951C88.1559 9.49618 88.4393 9.75284 88.6259 10.0795C88.8193 10.3995 88.9159 10.7595 88.9159 11.1595C88.9159 11.6195 88.7826 12.0362 88.5159 12.4095C88.2493 12.7762 87.8526 13.0295 87.3259 13.1695L88.9959 15.9995H87.3759ZM85.1759 12.2295H86.3459C86.7259 12.2295 87.0093 12.1395 87.1959 11.9595C87.3826 11.7728 87.4759 11.5162 87.4759 11.1895C87.4759 10.8695 87.3826 10.6228 87.1959 10.4495C87.0093 10.2695 86.7259 10.1795 86.3459 10.1795H85.1759V12.2295ZM94.9322 9.01951V10.1495H93.0722V15.9995H91.6722V10.1495H89.8122V9.01951H94.9322Z" fill="white"/>
<path d="M63.464 25.2875C63.464 26.1355 63.264 26.9355 62.864 27.6875C62.464 28.4395 61.824 29.0555 60.944 29.5355C60.064 29.9995 58.936 30.2315 57.56 30.2315H54.536V36.9995H51.8V20.3195H57.56C58.84 20.3195 59.92 20.5435 60.8 20.9915C61.696 21.4235 62.36 22.0155 62.792 22.7675C63.24 23.5195 63.464 24.3595 63.464 25.2875ZM57.56 27.9995C58.6 27.9995 59.376 27.7675 59.888 27.3035C60.4 26.8235 60.656 26.1515 60.656 25.2875C60.656 23.4635 59.624 22.5515 57.56 22.5515H54.536V27.9995H57.56ZM65.1614 30.3275C65.1614 28.9995 65.4334 27.8235 65.9774 26.7995C66.5374 25.7755 67.2894 24.9835 68.2334 24.4235C69.1934 23.8475 70.2494 23.5595 71.4014 23.5595C72.4414 23.5595 73.3454 23.7675 74.1134 24.1835C74.8974 24.5835 75.5214 25.0875 75.9854 25.6955V23.7755H78.7454V36.9995H75.9854V35.0315C75.5214 35.6555 74.8894 36.1755 74.0894 36.5915C73.2894 37.0075 72.3774 37.2155 71.3534 37.2155C70.2174 37.2155 69.1774 36.9275 68.2334 36.3515C67.2894 35.7595 66.5374 34.9435 65.9774 33.9035C65.4334 32.8475 65.1614 31.6555 65.1614 30.3275ZM75.9854 30.3755C75.9854 29.4635 75.7934 28.6715 75.4094 27.9995C75.0414 27.3275 74.5534 26.8155 73.9454 26.4635C73.3374 26.1115 72.6814 25.9355 71.9774 25.9355C71.2734 25.9355 70.6174 26.1115 70.0094 26.4635C69.4014 26.7995 68.9054 27.3035 68.5214 27.9755C68.1534 28.6315 67.9694 29.4155 67.9694 30.3275C67.9694 31.2395 68.1534 32.0395 68.5214 32.7275C68.9054 33.4155 69.4014 33.9435 70.0094 34.3115C70.6334 34.6635 71.2894 34.8395 71.9774 34.8395C72.6814 34.8395 73.3374 34.6635 73.9454 34.3115C74.5534 33.9595 75.0414 33.4475 75.4094 32.7755C75.7934 32.0875 75.9854 31.2875 75.9854 30.3755ZM85.5311 26.0075V33.3275C85.5311 33.8235 85.6431 34.1835 85.8671 34.4075C86.1071 34.6155 86.5071 34.7195 87.0671 34.7195H88.7471V36.9995H86.5871C85.3551 36.9995 84.4111 36.7115 83.7551 36.1355C83.0991 35.5595 82.7711 34.6235 82.7711 33.3275V26.0075H81.2111V23.7755H82.7711V20.4875H85.5311V23.7755H88.7471V26.0075H85.5311ZM94.0048 25.6955C94.4048 25.0235 94.9328 24.5035 95.5888 24.1355C96.2608 23.7515 97.0528 23.5595 97.9648 23.5595V26.3915H97.2688C96.1968 26.3915 95.3808 26.6635 94.8208 27.2075C94.2768 27.7515 94.0048 28.6955 94.0048 30.0395V36.9995H91.2688V23.7755H94.0048V25.6955ZM112.6 30.0635C112.6 30.5595 112.568 31.0075 112.504 31.4075H102.4C102.48 32.4635 102.872 33.3115 103.576 33.9515C104.28 34.5915 105.144 34.9115 106.168 34.9115C107.64 34.9115 108.68 34.2955 109.288 33.0635H112.24C111.84 34.2795 111.112 35.2795 110.056 36.0635C109.016 36.8315 107.72 37.2155 106.168 37.2155C104.904 37.2155 103.768 36.9355 102.76 36.3755C101.768 35.7995 100.984 34.9995 100.408 33.9755C99.8477 32.9355 99.5677 31.7355 99.5677 30.3755C99.5677 29.0155 99.8397 27.8235 100.384 26.7995C100.944 25.7595 101.72 24.9595 102.712 24.3995C103.72 23.8395 104.872 23.5595 106.168 23.5595C107.416 23.5595 108.528 23.8315 109.504 24.3755C110.48 24.9195 111.24 25.6875 111.784 26.6795C112.328 27.6555 112.6 28.7835 112.6 30.0635ZM109.744 29.1995C109.728 28.1915 109.368 27.3835 108.664 26.7755C107.96 26.1675 107.088 25.8635 106.048 25.8635C105.104 25.8635 104.296 26.1675 103.624 26.7755C102.952 27.3675 102.552 28.1755 102.424 29.1995H109.744ZM121.028 37.2155C119.78 37.2155 118.652 36.9355 117.644 36.3755C116.636 35.7995 115.844 34.9995 115.268 33.9755C114.692 32.9355 114.404 31.7355 114.404 30.3755C114.404 29.0315 114.7 27.8395 115.292 26.7995C115.884 25.7595 116.692 24.9595 117.716 24.3995C118.74 23.8395 119.884 23.5595 121.148 23.5595C122.412 23.5595 123.556 23.8395 124.58 24.3995C125.604 24.9595 126.412 25.7595 127.004 26.7995C127.596 27.8395 127.892 29.0315 127.892 30.3755C127.892 31.7195 127.588 32.9115 126.98 33.9515C126.372 34.9915 125.54 35.7995 124.484 36.3755C123.444 36.9355 122.292 37.2155 121.028 37.2155ZM121.028 34.8395C121.732 34.8395 122.388 34.6715 122.996 34.3355C123.62 33.9995 124.124 33.4955 124.508 32.8235C124.892 32.1515 125.084 31.3355 125.084 30.3755C125.084 29.4155 124.9 28.6075 124.532 27.9515C124.164 27.2795 123.676 26.7755 123.068 26.4395C122.46 26.1035 121.804 25.9355 121.1 25.9355C120.396 25.9355 119.74 26.1035 119.132 26.4395C118.54 26.7755 118.068 27.2795 117.716 27.9515C117.364 28.6075 117.188 29.4155 117.188 30.3755C117.188 31.7995 117.548 32.9035 118.268 33.6875C119.004 34.4555 119.924 34.8395 121.028 34.8395ZM137.269 23.5595C138.309 23.5595 139.237 23.7755 140.053 24.2075C140.885 24.6395 141.533 25.2795 141.997 26.1275C142.461 26.9755 142.693 27.9995 142.693 29.1995V36.9995H139.981V29.6075C139.981 28.4235 139.685 27.5195 139.093 26.8955C138.501 26.2555 137.693 25.9355 136.669 25.9355C135.645 25.9355 134.829 26.2555 134.221 26.8955C133.629 27.5195 133.333 28.4235 133.333 29.6075V36.9995H130.597V23.7755H133.333V25.2875C133.781 24.7435 134.349 24.3195 135.037 24.0155C135.741 23.7115 136.485 23.5595 137.269 23.5595Z" fill="white"/>
<rect x="50" y="40.9995" width="108" height="0.001" fill="white"/>
</svg>
